solid OpenSCAD_Model
  facet normal -0.885437 0.46476 0
    outer loop
      vertex -69.8838 29.9573 0
      vertex -68.994 31.6525 37.3
      vertex -68.994 31.6525 0
    endloop
  endfacet
  facet normal -0.885437 0.46476 0
    outer loop
      vertex -68.994 31.6525 37.3
      vertex -69.8838 29.9573 0
      vertex -69.8838 29.9573 37.3
    endloop
  endfacet
  facet normal 1 0 0
    outer loop
      vertex -10 25.5 22
      vertex -10 29 37.3
      vertex -10 25.5 30
    endloop
  endfacet
  facet normal 1 0 0
    outer loop
      vertex -10 29 37.3
      vertex -10 13.5 30
      vertex -10 25.5 30
    endloop
  endfacet
  facet normal 1 0 0
    outer loop
      vertex -10 13.5 30
      vertex -10 -29 37.3
      vertex -10 13.5 22
    endloop
  endfacet
  facet normal 1 -0 0
    outer loop
      vertex -10 -29 37.3
      vertex -10 13.5 30
      vertex -10 29 37.3
    endloop
  endfacet
  facet normal 1 0 0
    outer loop
      vertex -10 29 37.3
      vertex -10 25.5 22
      vertex -10 29 0
    endloop
  endfacet
  facet normal 1 -0 0
    outer loop
      vertex -10 13.5 22
      vertex -10 29 0
      vertex -10 25.5 22
    endloop
  endfacet
  facet normal 1 0 0
    outer loop
      vertex -10 -29 0
      vertex -10 13.5 22
      vertex -10 -29 37.3
    endloop
  endfacet
  facet normal 1 0 0
    outer loop
      vertex -10 13.5 22
      vertex -10 -29 0
      vertex -10 29 0
    endloop
  endfacet
  facet normal -1 0 0
    outer loop
      vertex -69.8838 -29.9573 0
      vertex -69.8838 29.9573 37.3
      vertex -69.8838 29.9573 0
    endloop
  endfacet
  facet normal -1 -0 0
    outer loop
      vertex -69.8838 29.9573 37.3
      vertex -69.8838 -29.9573 0
      vertex -69.8838 -29.9573 37.3
    endloop
  endfacet
  facet normal 0 -1 0
    outer loop
      vertex -65.5179 -32.9708 37.3
      vertex -56 -32.9708 12.49
      vertex -56 -32.9708 37.3
    endloop
  endfacet
  facet normal 0 -1 0
    outer loop
      vertex -56 -32.9708 12.49
      vertex -55 -32.9708 11.5
      vertex -55 -32.9708 12.49
    endloop
  endfacet
  facet normal 0 -1 -0
    outer loop
      vertex -55 -32.9708 11.5
      vertex -65.5179 -32.9708 0
      vertex -50 -32.9708 11.5
    endloop
  endfacet
  facet normal 0 -1 -0
    outer loop
      vertex -56 -32.9708 12.49
      vertex -65.5179 -32.9708 0
      vertex -55 -32.9708 11.5
    endloop
  endfacet
  facet normal 0 -1 0
    outer loop
      vertex -65.5179 -32.9708 0
      vertex -56 -32.9708 12.49
      vertex -65.5179 -32.9708 37.3
    endloop
  endfacet
  facet normal 0 -1 0
    outer loop
      vertex -54 -32.9708 37.3
      vertex -44 -32.9708 35.71
      vertex -44 -32.9708 37.3
    endloop
  endfacet
  facet normal 0 -1 0
    outer loop
      vertex -54 -32.9708 37.3
      vertex -50 -32.9708 18.5
      vertex -44 -32.9708 35.71
    endloop
  endfacet
  facet normal 0 -1 0
    outer loop
      vertex -50 -32.9708 18.5
      vertex -54 -32.9708 37.3
      vertex -54 -32.9708 18.5
    endloop
  endfacet
  facet normal 0 -1 0
    outer loop
      vertex -36 -32.9708 35.71
      vertex -13.5179 -32.9708 37.3
      vertex -36 -32.9708 37.3
    endloop
  endfacet
  facet normal 0 -1 -0
    outer loop
      vertex -44 -32.9708 35.71
      vertex -50 -32.9708 18.5
      vertex -36 -32.9708 35.71
    endloop
  endfacet
  facet normal 0 -1 0
    outer loop
      vertex -13.5179 -32.9708 0
      vertex -36 -32.9708 35.71
      vertex -50 -32.9708 18.5
    endloop
  endfacet
  facet normal 0 -1 0
    outer loop
      vertex -13.5179 -32.9708 0
      vertex -50 -32.9708 18.5
      vertex -50 -32.9708 11.5
    endloop
  endfacet
  facet normal 0 -1 0
    outer loop
      vertex -13.5179 -32.9708 0
      vertex -50 -32.9708 11.5
      vertex -65.5179 -32.9708 0
    endloop
  endfacet
  facet normal 0 -1 0
    outer loop
      vertex -36 -32.9708 35.71
      vertex -13.5179 -32.9708 0
      vertex -13.5179 -32.9708 37.3
    endloop
  endfacet
  facet normal 0.354607 -0.935015 0
    outer loop
      vertex -13.5179 -32.9708 0
      vertex -11.7278 -32.2919 37.3
      vertex -13.5179 -32.9708 37.3
    endloop
  endfacet
  facet normal 0.354607 -0.935015 0
    outer loop
      vertex -11.7278 -32.2919 37.3
      vertex -13.5179 -32.9708 0
      vertex -11.7278 -32.2919 0
    endloop
  endfacet
  facet normal -0.56808 0.822974 0
    outer loop
      vertex -67.4184 32.7401 0
      vertex -68.994 31.6525 37.3
      vertex -67.4184 32.7401 37.3
    endloop
  endfacet
  facet normal -0.56808 0.822974 0
    outer loop
      vertex -68.994 31.6525 37.3
      vertex -67.4184 32.7401 0
      vertex -68.994 31.6525 0
    endloop
  endfacet
  facet normal 0.970939 -0.239327 0
    outer loop
      vertex -10.4582 -30.8589 37.3
      vertex -10 -29 0
      vertex -10 -29 37.3
    endloop
  endfacet
  facet normal 0.970939 -0.239327 0
    outer loop
      vertex -10 -29 0
      vertex -10.4582 -30.8589 37.3
      vertex -10.4582 -30.8589 0
    endloop
  endfacet
  facet normal 0.748492 0.663144 0
    outer loop
      vertex -10.4582 30.8589 37.3
      vertex -11.7278 32.2919 0
      vertex -11.7278 32.2919 37.3
    endloop
  endfacet
  facet normal 0.748492 0.663144 0
    outer loop
      vertex -11.7278 32.2919 0
      vertex -10.4582 30.8589 37.3
      vertex -10.4582 30.8589 0
    endloop
  endfacet
  facet normal -0.120505 -0.992713 0
    outer loop
      vertex -67.4184 -32.7401 0
      vertex -65.5179 -32.9708 37.3
      vertex -67.4184 -32.7401 37.3
    endloop
  endfacet
  facet normal -0.120505 -0.992713 -0
    outer loop
      vertex -65.5179 -32.9708 37.3
      vertex -67.4184 -32.7401 0
      vertex -65.5179 -32.9708 0
    endloop
  endfacet
  facet normal 0.748492 -0.663144 0
    outer loop
      vertex -11.7278 -32.2919 37.3
      vertex -10.4582 -30.8589 0
      vertex -10.4582 -30.8589 37.3
    endloop
  endfacet
  facet normal 0.748492 -0.663144 0
    outer loop
      vertex -10.4582 -30.8589 0
      vertex -11.7278 -32.2919 37.3
      vertex -11.7278 -32.2919 0
    endloop
  endfacet
  facet normal 0.354607 0.935015 -0
    outer loop
      vertex -11.7278 32.2919 0
      vertex -13.5179 32.9708 37.3
      vertex -11.7278 32.2919 37.3
    endloop
  endfacet
  facet normal 0.354607 0.935015 0
    outer loop
      vertex -13.5179 32.9708 37.3
      vertex -11.7278 32.2919 0
      vertex -13.5179 32.9708 0
    endloop
  endfacet
  facet normal 0.970939 0.239327 0
    outer loop
      vertex -10 29 37.3
      vertex -10.4582 30.8589 0
      vertex -10.4582 30.8589 37.3
    endloop
  endfacet
  facet normal 0.970939 0.239327 0
    outer loop
      vertex -10.4582 30.8589 0
      vertex -10 29 37.3
      vertex -10 29 0
    endloop
  endfacet
  facet normal -0.120505 0.992713 0
    outer loop
      vertex -65.5179 32.9708 0
      vertex -67.4184 32.7401 37.3
      vertex -65.5179 32.9708 37.3
    endloop
  endfacet
  facet normal -0.120505 0.992713 0
    outer loop
      vertex -67.4184 32.7401 37.3
      vertex -65.5179 32.9708 0
      vertex -67.4184 32.7401 0
    endloop
  endfacet
  facet normal 0 0 -1
    outer loop
      vertex -27.7752 12 0
      vertex -35.5002 27 0
      vertex -25.9753 12 0
    endloop
  endfacet
  facet normal -0 -0 -1
    outer loop
      vertex -35.5002 27 0
      vertex -27.7752 12 0
      vertex -37.3001 27 0
    endloop
  endfacet
  facet normal 0 0 -1
    outer loop
      vertex -13.5179 -32.9708 0
      vertex -10 -29 0
      vertex -10.4582 -30.8589 0
    endloop
  endfacet
  facet normal 0 0 -1
    outer loop
      vertex -10 -29 0
      vertex -14.2753 12 0
      vertex -10 29 0
    endloop
  endfacet
  facet normal 0 0 -1
    outer loop
      vertex -13.5179 -32.9708 0
      vertex -10.4582 -30.8589 0
      vertex -11.7278 -32.2919 0
    endloop
  endfacet
  facet normal 0 0 -1
    outer loop
      vertex -23.8002 27 0
      vertex -10 29 0
      vertex -14.2753 12 0
    endloop
  endfacet
  facet normal 0 0 -1
    outer loop
      vertex -30.4751 12 0
      vertex -10 -29 0
      vertex -13.5179 -32.9708 0
    endloop
  endfacet
  facet normal 0 -0 -1
    outer loop
      vertex -13.5179 32.9708 0
      vertex -10 29 0
      vertex -23.8002 27 0
    endloop
  endfacet
  facet normal 0 0 -1
    outer loop
      vertex -10 29 0
      vertex -13.5179 32.9708 0
      vertex -10.4582 30.8589 0
    endloop
  endfacet
  facet normal 0 0 -1
    outer loop
      vertex -10 -29 0
      vertex -16.9752 12 0
      vertex -14.2753 12 0
    endloop
  endfacet
  facet normal 0 0 -1
    outer loop
      vertex -10 -29 0
      vertex -18.7753 12 0
      vertex -16.9752 12 0
    endloop
  endfacet
  facet normal 0 0 -1
    outer loop
      vertex -10 -29 0
      vertex -21.4752 12 0
      vertex -18.7753 12 0
    endloop
  endfacet
  facet normal 0 0 -1
    outer loop
      vertex -10 -29 0
      vertex -23.2754 12 0
      vertex -21.4752 12 0
    endloop
  endfacet
  facet normal 0 0 -1
    outer loop
      vertex -10 -29 0
      vertex -25.9753 12 0
      vertex -23.2754 12 0
    endloop
  endfacet
  facet normal 0 0 -1
    outer loop
      vertex -10 -29 0
      vertex -27.7752 12 0
      vertex -25.9753 12 0
    endloop
  endfacet
  facet normal 0 0 -1
    outer loop
      vertex -10 -29 0
      vertex -30.4751 12 0
      vertex -27.7752 12 0
    endloop
  endfacet
  facet normal 0 0 -1
    outer loop
      vertex -65.5179 -32.9708 0
      vertex -30.4751 12 0
      vertex -13.5179 -32.9708 0
    endloop
  endfacet
  facet normal 0 0 -1
    outer loop
      vertex -69.8838 -29.9573 0
      vertex -30.4751 12 0
      vertex -65.5179 -32.9708 0
    endloop
  endfacet
  facet normal 0 0 -1
    outer loop
      vertex -10.4582 30.8589 0
      vertex -13.5179 32.9708 0
      vertex -11.7278 32.2919 0
    endloop
  endfacet
  facet normal 0 0 -1
    outer loop
      vertex -26.5001 27 0
      vertex -13.5179 32.9708 0
      vertex -23.8002 27 0
    endloop
  endfacet
  facet normal 0 0 -1
    outer loop
      vertex -28.3002 27 0
      vertex -13.5179 32.9708 0
      vertex -26.5001 27 0
    endloop
  endfacet
  facet normal 0 0 -1
    outer loop
      vertex -31.0001 27 0
      vertex -13.5179 32.9708 0
      vertex -28.3002 27 0
    endloop
  endfacet
  facet normal 0 0 -1
    outer loop
      vertex -32.8003 27 0
      vertex -13.5179 32.9708 0
      vertex -31.0001 27 0
    endloop
  endfacet
  facet normal 0 0 -1
    outer loop
      vertex -35.5002 27 0
      vertex -13.5179 32.9708 0
      vertex -32.8003 27 0
    endloop
  endfacet
  facet normal 0 0 -1
    outer loop
      vertex -37.3001 27 0
      vertex -13.5179 32.9708 0
      vertex -35.5002 27 0
    endloop
  endfacet
  facet normal 0 0 -1
    outer loop
      vertex -40 27 0
      vertex -13.5179 32.9708 0
      vertex -37.3001 27 0
    endloop
  endfacet
  facet normal 0 0 -1
    outer loop
      vertex -40 27 0
      vertex -65.5179 32.9708 0
      vertex -13.5179 32.9708 0
    endloop
  endfacet
  facet normal 0 0 -1
    outer loop
      vertex -69.8838 29.9573 0
      vertex -30.4751 12 0
      vertex -69.8838 -29.9573 0
    endloop
  endfacet
  facet normal 0 0 -1
    outer loop
      vertex -69.8838 -29.9573 0
      vertex -65.5179 -32.9708 0
      vertex -67.4184 -32.7401 0
    endloop
  endfacet
  facet normal 0 0 -1
    outer loop
      vertex -30.4751 12 0
      vertex -69.8838 29.9573 0
      vertex -40 27 0
    endloop
  endfacet
  facet normal 0 0 -1
    outer loop
      vertex -69.8838 -29.9573 0
      vertex -67.4184 -32.7401 0
      vertex -68.994 -31.6525 0
    endloop
  endfacet
  facet normal 0 0 -1
    outer loop
      vertex -40 27 0
      vertex -69.8838 29.9573 0
      vertex -65.5179 32.9708 0
    endloop
  endfacet
  facet normal 0 0 -1
    outer loop
      vertex -65.5179 32.9708 0
      vertex -69.8838 29.9573 0
      vertex -67.4184 32.7401 0
    endloop
  endfacet
  facet normal 0 0 -1
    outer loop
      vertex -67.4184 32.7401 0
      vertex -69.8838 29.9573 0
      vertex -68.994 31.6525 0
    endloop
  endfacet
  facet normal 0 0 -1
    outer loop
      vertex -18.7753 12 0
      vertex -26.5001 27 0
      vertex -16.9752 12 0
    endloop
  endfacet
  facet normal -0 -0 -1
    outer loop
      vertex -26.5001 27 0
      vertex -18.7753 12 0
      vertex -28.3002 27 0
    endloop
  endfacet
  facet normal 0 0 -1
    outer loop
      vertex -23.2754 12 0
      vertex -31.0001 27 0
      vertex -21.4752 12 0
    endloop
  endfacet
  facet normal -0 -0 -1
    outer loop
      vertex -31.0001 27 0
      vertex -23.2754 12 0
      vertex -32.8003 27 0
    endloop
  endfacet
  facet normal -0.885437 -0.46476 0
    outer loop
      vertex -68.994 -31.6525 0
      vertex -69.8838 -29.9573 37.3
      vertex -69.8838 -29.9573 0
    endloop
  endfacet
  facet normal -0.885437 -0.46476 0
    outer loop
      vertex -69.8838 -29.9573 37.3
      vertex -68.994 -31.6525 0
      vertex -68.994 -31.6525 37.3
    endloop
  endfacet
  facet normal 0 0 1
    outer loop
      vertex -35.5002 27 2.5
      vertex -27.7752 12 2.5
      vertex -25.9753 12 2.5
    endloop
  endfacet
  facet normal 0 0 1
    outer loop
      vertex -27.7752 12 2.5
      vertex -35.5002 27 2.5
      vertex -37.3001 27 2.5
    endloop
  endfacet
  facet normal 0 0 1
    outer loop
      vertex -31.0001 27 2.5
      vertex -23.2754 12 2.5
      vertex -21.4752 12 2.5
    endloop
  endfacet
  facet normal 0 0 1
    outer loop
      vertex -23.2754 12 2.5
      vertex -31.0001 27 2.5
      vertex -32.8003 27 2.5
    endloop
  endfacet
  facet normal 0 0 1
    outer loop
      vertex -26.5001 27 2.5
      vertex -18.7753 12 2.5
      vertex -16.9752 12 2.5
    endloop
  endfacet
  facet normal 0 0 1
    outer loop
      vertex -18.7753 12 2.5
      vertex -26.5001 27 2.5
      vertex -28.3002 27 2.5
    endloop
  endfacet
  facet normal 0 0 1
    outer loop
      vertex -14.7679 31.7208 2.5
      vertex -11.25 27.75 2.5
      vertex -11.7082 29.6089 2.5
    endloop
  endfacet
  facet normal 0 0 1
    outer loop
      vertex -11.25 27.75 2.5
      vertex -14.2753 12 2.5
      vertex -11.25 -27.75 2.5
    endloop
  endfacet
  facet normal 0 0 1
    outer loop
      vertex -14.7679 31.7208 2.5
      vertex -11.7082 29.6089 2.5
      vertex -12.9778 31.0419 2.5
    endloop
  endfacet
  facet normal -0 0 1
    outer loop
      vertex -16.9752 12 2.5
      vertex -11.25 -27.75 2.5
      vertex -14.2753 12 2.5
    endloop
  endfacet
  facet normal -0 0 1
    outer loop
      vertex -18.7753 12 2.5
      vertex -11.25 -27.75 2.5
      vertex -16.9752 12 2.5
    endloop
  endfacet
  facet normal 0 0 1
    outer loop
      vertex -11.25 27.75 2.5
      vertex -14.7679 31.7208 2.5
      vertex -23.8002 27 2.5
    endloop
  endfacet
  facet normal 0 0 1
    outer loop
      vertex -11.25 27.75 2.5
      vertex -23.8002 27 2.5
      vertex -14.2753 12 2.5
    endloop
  endfacet
  facet normal 0 0 1
    outer loop
      vertex -14.7679 31.7208 2.5
      vertex -26.5001 27 2.5
      vertex -23.8002 27 2.5
    endloop
  endfacet
  facet normal 0 0 1
    outer loop
      vertex -14.7679 31.7208 2.5
      vertex -28.3002 27 2.5
      vertex -26.5001 27 2.5
    endloop
  endfacet
  facet normal 0 0 1
    outer loop
      vertex -14.7679 31.7208 2.5
      vertex -31.0001 27 2.5
      vertex -28.3002 27 2.5
    endloop
  endfacet
  facet normal 0 0 1
    outer loop
      vertex -14.7679 31.7208 2.5
      vertex -32.8003 27 2.5
      vertex -31.0001 27 2.5
    endloop
  endfacet
  facet normal 0 0 1
    outer loop
      vertex -14.7679 31.7208 2.5
      vertex -35.5002 27 2.5
      vertex -32.8003 27 2.5
    endloop
  endfacet
  facet normal 0 0 1
    outer loop
      vertex -14.7679 31.7208 2.5
      vertex -37.3001 27 2.5
      vertex -35.5002 27 2.5
    endloop
  endfacet
  facet normal 0 0 1
    outer loop
      vertex -14.7679 31.7208 2.5
      vertex -40 27 2.5
      vertex -37.3001 27 2.5
    endloop
  endfacet
  facet normal 0 -0 1
    outer loop
      vertex -40 27 2.5
      vertex -14.7679 31.7208 2.5
      vertex -64.2679 31.7208 2.5
    endloop
  endfacet
  facet normal -0 0 1
    outer loop
      vertex -21.4752 12 2.5
      vertex -11.25 -27.75 2.5
      vertex -18.7753 12 2.5
    endloop
  endfacet
  facet normal -0 0 1
    outer loop
      vertex -23.2754 12 2.5
      vertex -11.25 -27.75 2.5
      vertex -21.4752 12 2.5
    endloop
  endfacet
  facet normal -0 0 1
    outer loop
      vertex -25.9753 12 2.5
      vertex -11.25 -27.75 2.5
      vertex -23.2754 12 2.5
    endloop
  endfacet
  facet normal 0 0 1
    outer loop
      vertex -11.7082 -29.6089 2.5
      vertex -14.7679 -31.7208 2.5
      vertex -12.9778 -31.0419 2.5
    endloop
  endfacet
  facet normal -0 0 1
    outer loop
      vertex -27.7752 12 2.5
      vertex -11.25 -27.75 2.5
      vertex -25.9753 12 2.5
    endloop
  endfacet
  facet normal 0 0 1
    outer loop
      vertex -11.25 -27.75 2.5
      vertex -14.7679 -31.7208 2.5
      vertex -11.7082 -29.6089 2.5
    endloop
  endfacet
  facet normal -0 0 1
    outer loop
      vertex -30.4751 12 2.5
      vertex -11.25 -27.75 2.5
      vertex -27.7752 12 2.5
    endloop
  endfacet
  facet normal 0 0 1
    outer loop
      vertex -11.25 -27.75 2.5
      vertex -30.4751 12 2.5
      vertex -14.7679 -31.7208 2.5
    endloop
  endfacet
  facet normal 0 0 1
    outer loop
      vertex -68.6338 28.7073 2.5
      vertex -30.4751 12 2.5
      vertex -40 27 2.5
    endloop
  endfacet
  facet normal -0 0 1
    outer loop
      vertex -68.6338 28.7073 2.5
      vertex -40 27 2.5
      vertex -64.2679 31.7208 2.5
    endloop
  endfacet
  facet normal 0 0 1
    outer loop
      vertex -30.4751 12 2.5
      vertex -64.2679 -31.7208 2.5
      vertex -14.7679 -31.7208 2.5
    endloop
  endfacet
  facet normal 0 0 1
    outer loop
      vertex -68.6338 28.7073 2.5
      vertex -64.2679 31.7208 2.5
      vertex -66.1684 31.4901 2.5
    endloop
  endfacet
  facet normal 0 0 1
    outer loop
      vertex -30.4751 12 2.5
      vertex -68.6338 28.7073 2.5
      vertex -68.6338 -28.7073 2.5
    endloop
  endfacet
  facet normal 0 0 1
    outer loop
      vertex -68.6338 28.7073 2.5
      vertex -66.1684 31.4901 2.5
      vertex -67.744 30.4025 2.5
    endloop
  endfacet
  facet normal 0 0 1
    outer loop
      vertex -30.4751 12 2.5
      vertex -68.6338 -28.7073 2.5
      vertex -64.2679 -31.7208 2.5
    endloop
  endfacet
  facet normal 0 0 1
    outer loop
      vertex -64.2679 -31.7208 2.5
      vertex -68.6338 -28.7073 2.5
      vertex -66.1684 -31.4901 2.5
    endloop
  endfacet
  facet normal 0 0 1
    outer loop
      vertex -66.1684 -31.4901 2.5
      vertex -68.6338 -28.7073 2.5
      vertex -67.744 -30.4025 2.5
    endloop
  endfacet
  facet normal 0 1 0
    outer loop
      vertex -13.5179 32.9708 37.3
      vertex -36 32.9708 35.71
      vertex -36 32.9708 37.3
    endloop
  endfacet
  facet normal 0 1 0
    outer loop
      vertex -65.5179 32.9708 0
      vertex -36 32.9708 35.71
      vertex -13.5179 32.9708 0
    endloop
  endfacet
  facet normal 0 1 -0
    outer loop
      vertex -13.5179 32.9708 0
      vertex -36 32.9708 35.71
      vertex -13.5179 32.9708 37.3
    endloop
  endfacet
  facet normal 0 1 -0
    outer loop
      vertex -44 32.9708 35.71
      vertex -65.5179 32.9708 37.3
      vertex -44 32.9708 37.3
    endloop
  endfacet
  facet normal 0 1 0
    outer loop
      vertex -36 32.9708 35.71
      vertex -65.5179 32.9708 0
      vertex -44 32.9708 35.71
    endloop
  endfacet
  facet normal 0 1 0
    outer loop
      vertex -44 32.9708 35.71
      vertex -65.5179 32.9708 0
      vertex -65.5179 32.9708 37.3
    endloop
  endfacet
  facet normal -0.56808 -0.822974 0
    outer loop
      vertex -68.994 -31.6525 0
      vertex -67.4184 -32.7401 37.3
      vertex -68.994 -31.6525 37.3
    endloop
  endfacet
  facet normal -0.56808 -0.822974 -0
    outer loop
      vertex -67.4184 -32.7401 37.3
      vertex -68.994 -31.6525 0
      vertex -67.4184 -32.7401 0
    endloop
  endfacet
  facet normal 0 1 -0
    outer loop
      vertex -27.7752 12 0
      vertex -30.4751 12 2.5
      vertex -27.7752 12 2.5
    endloop
  endfacet
  facet normal 0 1 0
    outer loop
      vertex -30.4751 12 2.5
      vertex -27.7752 12 0
      vertex -30.4751 12 0
    endloop
  endfacet
  facet normal 0.844185 0.536052 0
    outer loop
      vertex -30.4751 12 2.5
      vertex -40 27 0
      vertex -40 27 2.5
    endloop
  endfacet
  facet normal 0.844185 0.536052 0
    outer loop
      vertex -40 27 0
      vertex -30.4751 12 2.5
      vertex -30.4751 12 0
    endloop
  endfacet
  facet normal 0 -1 0
    outer loop
      vertex -40 27 0
      vertex -37.3001 27 2.5
      vertex -40 27 2.5
    endloop
  endfacet
  facet normal 0 -1 -0
    outer loop
      vertex -37.3001 27 2.5
      vertex -40 27 0
      vertex -37.3001 27 0
    endloop
  endfacet
  facet normal -0.844185 -0.536052 0
    outer loop
      vertex -27.7752 12 0
      vertex -37.3001 27 2.5
      vertex -37.3001 27 0
    endloop
  endfacet
  facet normal -0.844185 -0.536052 0
    outer loop
      vertex -37.3001 27 2.5
      vertex -27.7752 12 0
      vertex -27.7752 12 2.5
    endloop
  endfacet
  facet normal 0 1 -0
    outer loop
      vertex -23.2754 12 0
      vertex -25.9753 12 2.5
      vertex -23.2754 12 2.5
    endloop
  endfacet
  facet normal 0 1 0
    outer loop
      vertex -25.9753 12 2.5
      vertex -23.2754 12 0
      vertex -25.9753 12 0
    endloop
  endfacet
  facet normal 0.844185 0.536052 0
    outer loop
      vertex -25.9753 12 2.5
      vertex -35.5002 27 0
      vertex -35.5002 27 2.5
    endloop
  endfacet
  facet normal 0.844185 0.536052 0
    outer loop
      vertex -35.5002 27 0
      vertex -25.9753 12 2.5
      vertex -25.9753 12 0
    endloop
  endfacet
  facet normal 0 -1 0
    outer loop
      vertex -35.5002 27 0
      vertex -32.8003 27 2.5
      vertex -35.5002 27 2.5
    endloop
  endfacet
  facet normal 0 -1 -0
    outer loop
      vertex -32.8003 27 2.5
      vertex -35.5002 27 0
      vertex -32.8003 27 0
    endloop
  endfacet
  facet normal -0.844185 -0.536052 0
    outer loop
      vertex -23.2754 12 0
      vertex -32.8003 27 2.5
      vertex -32.8003 27 0
    endloop
  endfacet
  facet normal -0.844185 -0.536052 0
    outer loop
      vertex -32.8003 27 2.5
      vertex -23.2754 12 0
      vertex -23.2754 12 2.5
    endloop
  endfacet
  facet normal 0 1 -0
    outer loop
      vertex -18.7753 12 0
      vertex -21.4752 12 2.5
      vertex -18.7753 12 2.5
    endloop
  endfacet
  facet normal 0 1 0
    outer loop
      vertex -21.4752 12 2.5
      vertex -18.7753 12 0
      vertex -21.4752 12 0
    endloop
  endfacet
  facet normal 0.844185 0.536052 0
    outer loop
      vertex -21.4752 12 2.5
      vertex -31.0001 27 0
      vertex -31.0001 27 2.5
    endloop
  endfacet
  facet normal 0.844185 0.536052 0
    outer loop
      vertex -31.0001 27 0
      vertex -21.4752 12 2.5
      vertex -21.4752 12 0
    endloop
  endfacet
  facet normal 0 -1 0
    outer loop
      vertex -31.0001 27 0
      vertex -28.3002 27 2.5
      vertex -31.0001 27 2.5
    endloop
  endfacet
  facet normal 0 -1 -0
    outer loop
      vertex -28.3002 27 2.5
      vertex -31.0001 27 0
      vertex -28.3002 27 0
    endloop
  endfacet
  facet normal -0.844185 -0.536052 0
    outer loop
      vertex -18.7753 12 0
      vertex -28.3002 27 2.5
      vertex -28.3002 27 0
    endloop
  endfacet
  facet normal -0.844185 -0.536052 0
    outer loop
      vertex -28.3002 27 2.5
      vertex -18.7753 12 0
      vertex -18.7753 12 2.5
    endloop
  endfacet
  facet normal 0 1 -0
    outer loop
      vertex -14.2753 12 0
      vertex -16.9752 12 2.5
      vertex -14.2753 12 2.5
    endloop
  endfacet
  facet normal 0 1 0
    outer loop
      vertex -16.9752 12 2.5
      vertex -14.2753 12 0
      vertex -16.9752 12 0
    endloop
  endfacet
  facet normal 0.844185 0.536052 0
    outer loop
      vertex -16.9752 12 2.5
      vertex -26.5001 27 0
      vertex -26.5001 27 2.5
    endloop
  endfacet
  facet normal 0.844185 0.536052 0
    outer loop
      vertex -26.5001 27 0
      vertex -16.9752 12 2.5
      vertex -16.9752 12 0
    endloop
  endfacet
  facet normal 0 -1 0
    outer loop
      vertex -26.5001 27 0
      vertex -23.8002 27 2.5
      vertex -26.5001 27 2.5
    endloop
  endfacet
  facet normal 0 -1 -0
    outer loop
      vertex -23.8002 27 2.5
      vertex -26.5001 27 0
      vertex -23.8002 27 0
    endloop
  endfacet
  facet normal -0.844185 -0.536052 0
    outer loop
      vertex -14.2753 12 0
      vertex -23.8002 27 2.5
      vertex -23.8002 27 0
    endloop
  endfacet
  facet normal -0.844185 -0.536052 0
    outer loop
      vertex -23.8002 27 2.5
      vertex -14.2753 12 0
      vertex -14.2753 12 2.5
    endloop
  endfacet
  facet normal 0 0 1
    outer loop
      vertex -10.85 28.15 35.4
      vertex -11.25 27.75 35.4
      vertex -10.85 -28.15 35.4
    endloop
  endfacet
  facet normal -0 0 1
    outer loop
      vertex -11.7082 29.6089 35.4
      vertex -10.85 28.15 35.4
      vertex -11.3082 30.0089 35.4
    endloop
  endfacet
  facet normal 0 0 1
    outer loop
      vertex -10.85 28.15 35.4
      vertex -11.7082 29.6089 35.4
      vertex -11.25 27.75 35.4
    endloop
  endfacet
  facet normal -0 0 1
    outer loop
      vertex -12.9778 31.0419 35.4
      vertex -11.3082 30.0089 35.4
      vertex -12.5778 31.4419 35.4
    endloop
  endfacet
  facet normal 0 0 1
    outer loop
      vertex -11.3082 30.0089 35.4
      vertex -12.9778 31.0419 35.4
      vertex -11.7082 29.6089 35.4
    endloop
  endfacet
  facet normal 0 0 1
    outer loop
      vertex -14.3679 32.1208 35.4
      vertex -12.9778 31.0419 35.4
      vertex -12.5778 31.4419 35.4
    endloop
  endfacet
  facet normal 0 0 1
    outer loop
      vertex -14.3679 32.1208 35.4
      vertex -14.7679 31.7208 35.4
      vertex -12.9778 31.0419 35.4
    endloop
  endfacet
  facet normal 0 0 1
    outer loop
      vertex -14.3679 32.1208 35.4
      vertex -64.2679 31.7208 35.4
      vertex -14.7679 31.7208 35.4
    endloop
  endfacet
  facet normal -0 0 1
    outer loop
      vertex -64.6679 32.1208 35.4
      vertex -64.2679 31.7208 35.4
      vertex -14.3679 32.1208 35.4
    endloop
  endfacet
  facet normal 0 0 1
    outer loop
      vertex -64.6679 32.1208 35.4
      vertex -66.1684 31.4901 35.4
      vertex -64.2679 31.7208 35.4
    endloop
  endfacet
  facet normal -0 0 1
    outer loop
      vertex -66.5684 31.89 35.4
      vertex -66.1684 31.4901 35.4
      vertex -64.6679 32.1208 35.4
    endloop
  endfacet
  facet normal 0 0 1
    outer loop
      vertex -66.5684 31.89 35.4
      vertex -67.744 30.4025 35.4
      vertex -66.1684 31.4901 35.4
    endloop
  endfacet
  facet normal -0 0 1
    outer loop
      vertex -68.144 30.8025 35.4
      vertex -67.744 30.4025 35.4
      vertex -66.5684 31.89 35.4
    endloop
  endfacet
  facet normal 0 0 1
    outer loop
      vertex -69.0338 29.1073 35.4
      vertex -67.744 30.4025 35.4
      vertex -68.144 30.8025 35.4
    endloop
  endfacet
  facet normal 0 0 1
    outer loop
      vertex -68.6338 28.7073 35.4
      vertex -69.0338 29.1073 35.4
      vertex -68.6338 -28.7073 35.4
    endloop
  endfacet
  facet normal 0 0 1
    outer loop
      vertex -67.744 30.4025 35.4
      vertex -69.0338 29.1073 35.4
      vertex -68.6338 28.7073 35.4
    endloop
  endfacet
  facet normal -0 0 1
    outer loop
      vertex -11.25 -27.75 35.4
      vertex -10.85 -28.15 35.4
      vertex -11.25 27.75 35.4
    endloop
  endfacet
  facet normal 0 0 1
    outer loop
      vertex -11.7082 -29.6089 35.4
      vertex -10.85 -28.15 35.4
      vertex -11.25 -27.75 35.4
    endloop
  endfacet
  facet normal 0 0 1
    outer loop
      vertex -10.85 -28.15 35.4
      vertex -11.7082 -29.6089 35.4
      vertex -11.3082 -30.0089 35.4
    endloop
  endfacet
  facet normal 0 0 1
    outer loop
      vertex -12.9778 -31.0419 35.4
      vertex -11.3082 -30.0089 35.4
      vertex -11.7082 -29.6089 35.4
    endloop
  endfacet
  facet normal 0 0 1
    outer loop
      vertex -11.3082 -30.0089 35.4
      vertex -12.9778 -31.0419 35.4
      vertex -12.5778 -31.4419 35.4
    endloop
  endfacet
  facet normal 0 0 1
    outer loop
      vertex -12.9778 -31.0419 35.4
      vertex -14.3679 -32.1208 35.4
      vertex -12.5778 -31.4419 35.4
    endloop
  endfacet
  facet normal -0 0 1
    outer loop
      vertex -14.7679 -31.7208 35.4
      vertex -14.3679 -32.1208 35.4
      vertex -12.9778 -31.0419 35.4
    endloop
  endfacet
  facet normal 0 0 1
    outer loop
      vertex -54 -32.1208 35.4
      vertex -14.7679 -31.7208 35.4
      vertex -54 -31.7208 35.4
    endloop
  endfacet
  facet normal 0 0 1
    outer loop
      vertex -14.7679 -31.7208 35.4
      vertex -54 -32.1208 35.4
      vertex -14.3679 -32.1208 35.4
    endloop
  endfacet
  facet normal -0 0 1
    outer loop
      vertex -64.2679 -31.7208 35.4
      vertex -56 -32.1208 35.4
      vertex -56 -31.7208 35.4
    endloop
  endfacet
  facet normal 0 0 1
    outer loop
      vertex -64.2679 -31.7208 35.4
      vertex -64.6679 -32.1208 35.4
      vertex -56 -32.1208 35.4
    endloop
  endfacet
  facet normal 0 0 1
    outer loop
      vertex -66.1684 -31.4901 35.4
      vertex -64.6679 -32.1208 35.4
      vertex -64.2679 -31.7208 35.4
    endloop
  endfacet
  facet normal 0 0 1
    outer loop
      vertex -66.1684 -31.4901 35.4
      vertex -66.5684 -31.89 35.4
      vertex -64.6679 -32.1208 35.4
    endloop
  endfacet
  facet normal 0 0 1
    outer loop
      vertex -67.744 -30.4025 35.4
      vertex -66.5684 -31.89 35.4
      vertex -66.1684 -31.4901 35.4
    endloop
  endfacet
  facet normal 0 0 1
    outer loop
      vertex -67.744 -30.4025 35.4
      vertex -68.144 -30.8025 35.4
      vertex -66.5684 -31.89 35.4
    endloop
  endfacet
  facet normal -0 0 1
    outer loop
      vertex -69.0338 -29.1072 35.4
      vertex -67.744 -30.4025 35.4
      vertex -68.6338 -28.7073 35.4
    endloop
  endfacet
  facet normal 0 0 1
    outer loop
      vertex -67.744 -30.4025 35.4
      vertex -69.0338 -29.1072 35.4
      vertex -68.144 -30.8025 35.4
    endloop
  endfacet
  facet normal 0 0 1
    outer loop
      vertex -69.0338 -29.1072 35.4
      vertex -68.6338 -28.7073 35.4
      vertex -69.0338 29.1073 35.4
    endloop
  endfacet
  facet normal 0.120505 -0.992713 0
    outer loop
      vertex -66.1684 31.4901 2.5
      vertex -64.2679 31.7208 35.4
      vertex -66.1684 31.4901 35.4
    endloop
  endfacet
  facet normal 0.120505 -0.992713 0
    outer loop
      vertex -64.2679 31.7208 35.4
      vertex -66.1684 31.4901 2.5
      vertex -64.2679 31.7208 2.5
    endloop
  endfacet
  facet normal 0.56808 -0.822974 0
    outer loop
      vertex -67.744 30.4025 2.5
      vertex -66.1684 31.4901 35.4
      vertex -67.744 30.4025 35.4
    endloop
  endfacet
  facet normal 0.56808 -0.822974 0
    outer loop
      vertex -66.1684 31.4901 35.4
      vertex -67.744 30.4025 2.5
      vertex -66.1684 31.4901 2.5
    endloop
  endfacet
  facet normal 0.885437 -0.46476 0
    outer loop
      vertex -68.6338 28.7073 35.4
      vertex -67.744 30.4025 2.5
      vertex -67.744 30.4025 35.4
    endloop
  endfacet
  facet normal 0.885437 -0.46476 0
    outer loop
      vertex -67.744 30.4025 2.5
      vertex -68.6338 28.7073 35.4
      vertex -68.6338 28.7073 2.5
    endloop
  endfacet
  facet normal 1 -0 0
    outer loop
      vertex -68.6338 -28.7073 35.4
      vertex -68.6338 28.7073 2.5
      vertex -68.6338 28.7073 35.4
    endloop
  endfacet
  facet normal 1 0 0
    outer loop
      vertex -68.6338 28.7073 2.5
      vertex -68.6338 -28.7073 35.4
      vertex -68.6338 -28.7073 2.5
    endloop
  endfacet
  facet normal 0.885437 0.46476 0
    outer loop
      vertex -67.744 -30.4025 35.4
      vertex -68.6338 -28.7073 2.5
      vertex -68.6338 -28.7073 35.4
    endloop
  endfacet
  facet normal 0.885437 0.46476 0
    outer loop
      vertex -68.6338 -28.7073 2.5
      vertex -67.744 -30.4025 35.4
      vertex -67.744 -30.4025 2.5
    endloop
  endfacet
  facet normal 0.56808 0.822974 -0
    outer loop
      vertex -66.1684 -31.4901 2.5
      vertex -67.744 -30.4025 35.4
      vertex -66.1684 -31.4901 35.4
    endloop
  endfacet
  facet normal 0.56808 0.822974 0
    outer loop
      vertex -67.744 -30.4025 35.4
      vertex -66.1684 -31.4901 2.5
      vertex -67.744 -30.4025 2.5
    endloop
  endfacet
  facet normal 0.120505 0.992713 -0
    outer loop
      vertex -64.2679 -31.7208 2.5
      vertex -66.1684 -31.4901 35.4
      vertex -64.2679 -31.7208 35.4
    endloop
  endfacet
  facet normal 0.120505 0.992713 0
    outer loop
      vertex -66.1684 -31.4901 35.4
      vertex -64.2679 -31.7208 2.5
      vertex -66.1684 -31.4901 2.5
    endloop
  endfacet
  facet normal 0 1 0
    outer loop
      vertex -14.7679 -31.7208 35.4
      vertex -50 -31.7208 18.5
      vertex -54 -31.7208 35.4
    endloop
  endfacet
  facet normal 0 1 -0
    outer loop
      vertex -14.7679 -31.7208 2.5
      vertex -50 -31.7208 18.5
      vertex -14.7679 -31.7208 35.4
    endloop
  endfacet
  facet normal 0 1 0
    outer loop
      vertex -64.2679 -31.7208 2.5
      vertex -50 -31.7208 11.5
      vertex -14.7679 -31.7208 2.5
    endloop
  endfacet
  facet normal 0 1 0
    outer loop
      vertex -50 -31.7208 18.5
      vertex -14.7679 -31.7208 2.5
      vertex -50 -31.7208 11.5
    endloop
  endfacet
  facet normal 0 1 0
    outer loop
      vertex -54 -31.7208 35.4
      vertex -50 -31.7208 18.5
      vertex -54 -31.7208 18.5
    endloop
  endfacet
  facet normal 0 1 0
    outer loop
      vertex -55 -31.7208 12.49
      vertex -55 -31.7208 11.5
      vertex -56 -31.7208 12.49
    endloop
  endfacet
  facet normal 0 1 -0
    outer loop
      vertex -56 -31.7208 12.49
      vertex -64.2679 -31.7208 35.4
      vertex -56 -31.7208 35.4
    endloop
  endfacet
  facet normal 0 1 0
    outer loop
      vertex -56 -31.7208 12.49
      vertex -64.2679 -31.7208 2.5
      vertex -64.2679 -31.7208 35.4
    endloop
  endfacet
  facet normal 0 1 0
    outer loop
      vertex -55 -31.7208 11.5
      vertex -64.2679 -31.7208 2.5
      vertex -56 -31.7208 12.49
    endloop
  endfacet
  facet normal 0 1 0
    outer loop
      vertex -50 -31.7208 11.5
      vertex -64.2679 -31.7208 2.5
      vertex -55 -31.7208 11.5
    endloop
  endfacet
  facet normal -0.354607 0.935015 0
    outer loop
      vertex -12.9778 -31.0419 2.5
      vertex -14.7679 -31.7208 35.4
      vertex -12.9778 -31.0419 35.4
    endloop
  endfacet
  facet normal -0.354607 0.935015 0
    outer loop
      vertex -14.7679 -31.7208 35.4
      vertex -12.9778 -31.0419 2.5
      vertex -14.7679 -31.7208 2.5
    endloop
  endfacet
  facet normal -0.748492 0.663144 0
    outer loop
      vertex -12.9778 -31.0419 2.5
      vertex -11.7082 -29.6089 35.4
      vertex -11.7082 -29.6089 2.5
    endloop
  endfacet
  facet normal -0.748492 0.663144 0
    outer loop
      vertex -11.7082 -29.6089 35.4
      vertex -12.9778 -31.0419 2.5
      vertex -12.9778 -31.0419 35.4
    endloop
  endfacet
  facet normal -0.970939 0.239327 0
    outer loop
      vertex -11.7082 -29.6089 2.5
      vertex -11.25 -27.75 35.4
      vertex -11.25 -27.75 2.5
    endloop
  endfacet
  facet normal -0.970939 0.239327 0
    outer loop
      vertex -11.25 -27.75 35.4
      vertex -11.7082 -29.6089 2.5
      vertex -11.7082 -29.6089 35.4
    endloop
  endfacet
  facet normal -1 0 0
    outer loop
      vertex -11.25 27.75 2.5
      vertex -11.25 25.5 22
      vertex -11.25 27.75 35.4
    endloop
  endfacet
  facet normal -1 0 0
    outer loop
      vertex -11.25 27.75 2.5
      vertex -11.25 13.5 22
      vertex -11.25 25.5 22
    endloop
  endfacet
  facet normal -1 0 0
    outer loop
      vertex -11.25 -27.75 35.4
      vertex -11.25 13.5 22
      vertex -11.25 -27.75 2.5
    endloop
  endfacet
  facet normal -1 0 0
    outer loop
      vertex -11.25 -27.75 2.5
      vertex -11.25 13.5 22
      vertex -11.25 27.75 2.5
    endloop
  endfacet
  facet normal -1 0 0
    outer loop
      vertex -11.25 25.5 30
      vertex -11.25 27.75 35.4
      vertex -11.25 25.5 22
    endloop
  endfacet
  facet normal -1 0 0
    outer loop
      vertex -11.25 13.5 30
      vertex -11.25 27.75 35.4
      vertex -11.25 25.5 30
    endloop
  endfacet
  facet normal -1 0 0
    outer loop
      vertex -11.25 13.5 30
      vertex -11.25 -27.75 35.4
      vertex -11.25 27.75 35.4
    endloop
  endfacet
  facet normal -1 0 0
    outer loop
      vertex -11.25 13.5 22
      vertex -11.25 -27.75 35.4
      vertex -11.25 13.5 30
    endloop
  endfacet
  facet normal -0.970939 -0.239327 0
    outer loop
      vertex -11.25 27.75 2.5
      vertex -11.7082 29.6089 35.4
      vertex -11.7082 29.6089 2.5
    endloop
  endfacet
  facet normal -0.970939 -0.239327 0
    outer loop
      vertex -11.7082 29.6089 35.4
      vertex -11.25 27.75 2.5
      vertex -11.25 27.75 35.4
    endloop
  endfacet
  facet normal -0.748492 -0.663144 0
    outer loop
      vertex -11.7082 29.6089 2.5
      vertex -12.9778 31.0419 35.4
      vertex -12.9778 31.0419 2.5
    endloop
  endfacet
  facet normal -0.748492 -0.663144 0
    outer loop
      vertex -12.9778 31.0419 35.4
      vertex -11.7082 29.6089 2.5
      vertex -11.7082 29.6089 35.4
    endloop
  endfacet
  facet normal -0.354607 -0.935015 0
    outer loop
      vertex -14.7679 31.7208 2.5
      vertex -12.9778 31.0419 35.4
      vertex -14.7679 31.7208 35.4
    endloop
  endfacet
  facet normal -0.354607 -0.935015 -0
    outer loop
      vertex -12.9778 31.0419 35.4
      vertex -14.7679 31.7208 2.5
      vertex -12.9778 31.0419 2.5
    endloop
  endfacet
  facet normal 0 -1 0
    outer loop
      vertex -64.2679 31.7208 2.5
      vertex -14.7679 31.7208 35.4
      vertex -64.2679 31.7208 35.4
    endloop
  endfacet
  facet normal 0 -1 -0
    outer loop
      vertex -14.7679 31.7208 35.4
      vertex -64.2679 31.7208 2.5
      vertex -14.7679 31.7208 2.5
    endloop
  endfacet
  facet normal -0 0 1
    outer loop
      vertex -11.3082 30.0089 37.3
      vertex -10 29 37.3
      vertex -10.4582 30.8589 37.3
    endloop
  endfacet
  facet normal 0 0 1
    outer loop
      vertex -10 29 37.3
      vertex -10.85 28.15 37.3
      vertex -10 -29 37.3
    endloop
  endfacet
  facet normal -0 0 1
    outer loop
      vertex -10.85 -28.15 37.3
      vertex -10 -29 37.3
      vertex -10.85 28.15 37.3
    endloop
  endfacet
  facet normal 0 0 1
    outer loop
      vertex -10 29 37.3
      vertex -11.3082 30.0089 37.3
      vertex -10.85 28.15 37.3
    endloop
  endfacet
  facet normal -0 0 1
    outer loop
      vertex -12.5778 31.4419 37.3
      vertex -10.4582 30.8589 37.3
      vertex -11.7278 32.2919 37.3
    endloop
  endfacet
  facet normal 0 0 1
    outer loop
      vertex -10.4582 30.8589 37.3
      vertex -12.5778 31.4419 37.3
      vertex -11.3082 30.0089 37.3
    endloop
  endfacet
  facet normal 0 0 1
    outer loop
      vertex -13.5179 32.9708 37.3
      vertex -12.5778 31.4419 37.3
      vertex -11.7278 32.2919 37.3
    endloop
  endfacet
  facet normal 0 0 1
    outer loop
      vertex -13.5179 32.9708 37.3
      vertex -14.3679 32.1208 37.3
      vertex -12.5778 31.4419 37.3
    endloop
  endfacet
  facet normal -0 0 1
    outer loop
      vertex -36 32.9708 37.3
      vertex -14.3679 32.1208 37.3
      vertex -13.5179 32.9708 37.3
    endloop
  endfacet
  facet normal 0 0 1
    outer loop
      vertex -14.3679 32.1208 37.3
      vertex -36 32.9708 37.3
      vertex -36 32.1208 37.3
    endloop
  endfacet
  facet normal 0 0 1
    outer loop
      vertex -11.3082 -30.0089 37.3
      vertex -10 -29 37.3
      vertex -10.85 -28.15 37.3
    endloop
  endfacet
  facet normal 0 0 1
    outer loop
      vertex -10 -29 37.3
      vertex -11.3082 -30.0089 37.3
      vertex -10.4582 -30.8589 37.3
    endloop
  endfacet
  facet normal 0 0 1
    outer loop
      vertex -12.5778 -31.4419 37.3
      vertex -10.4582 -30.8589 37.3
      vertex -11.3082 -30.0089 37.3
    endloop
  endfacet
  facet normal 0 0 1
    outer loop
      vertex -10.4582 -30.8589 37.3
      vertex -12.5778 -31.4419 37.3
      vertex -11.7278 -32.2919 37.3
    endloop
  endfacet
  facet normal 0 0 1
    outer loop
      vertex -12.5778 -31.4419 37.3
      vertex -13.5179 -32.9708 37.3
      vertex -11.7278 -32.2919 37.3
    endloop
  endfacet
  facet normal -0 0 1
    outer loop
      vertex -14.3679 -32.1208 37.3
      vertex -13.5179 -32.9708 37.3
      vertex -12.5778 -31.4419 37.3
    endloop
  endfacet
  facet normal 0 0 1
    outer loop
      vertex -36 -32.9708 37.3
      vertex -14.3679 -32.1208 37.3
      vertex -36 -32.1208 37.3
    endloop
  endfacet
  facet normal 0 0 1
    outer loop
      vertex -14.3679 -32.1208 37.3
      vertex -36 -32.9708 37.3
      vertex -13.5179 -32.9708 37.3
    endloop
  endfacet
  facet normal 0 0 1
    outer loop
      vertex -44 32.9708 37.3
      vertex -64.6679 32.1208 37.3
      vertex -44 32.1208 37.3
    endloop
  endfacet
  facet normal -0 0 1
    outer loop
      vertex -65.5179 32.9708 37.3
      vertex -64.6679 32.1208 37.3
      vertex -44 32.9708 37.3
    endloop
  endfacet
  facet normal 0 0 1
    outer loop
      vertex -65.5179 32.9708 37.3
      vertex -66.5684 31.89 37.3
      vertex -64.6679 32.1208 37.3
    endloop
  endfacet
  facet normal -0 0 1
    outer loop
      vertex -67.4184 32.7401 37.3
      vertex -66.5684 31.89 37.3
      vertex -65.5179 32.9708 37.3
    endloop
  endfacet
  facet normal 0 0 1
    outer loop
      vertex -67.4184 32.7401 37.3
      vertex -68.144 30.8025 37.3
      vertex -66.5684 31.89 37.3
    endloop
  endfacet
  facet normal -0 0 1
    outer loop
      vertex -68.994 31.6525 37.3
      vertex -68.144 30.8025 37.3
      vertex -67.4184 32.7401 37.3
    endloop
  endfacet
  facet normal 0 0 1
    outer loop
      vertex -69.8838 29.9573 37.3
      vertex -68.144 30.8025 37.3
      vertex -68.994 31.6525 37.3
    endloop
  endfacet
  facet normal 0 0 1
    outer loop
      vertex -69.0338 29.1073 37.3
      vertex -69.8838 29.9573 37.3
      vertex -69.0338 -29.1072 37.3
    endloop
  endfacet
  facet normal 0 0 1
    outer loop
      vertex -68.144 30.8025 37.3
      vertex -69.8838 29.9573 37.3
      vertex -69.0338 29.1073 37.3
    endloop
  endfacet
  facet normal -0 0 1
    outer loop
      vertex -64.6679 -32.1208 37.3
      vertex -56 -32.9708 37.3
      vertex -56 -32.1208 37.3
    endloop
  endfacet
  facet normal 0 0 1
    outer loop
      vertex -64.6679 -32.1208 37.3
      vertex -65.5179 -32.9708 37.3
      vertex -56 -32.9708 37.3
    endloop
  endfacet
  facet normal 0 0 1
    outer loop
      vertex -66.5684 -31.89 37.3
      vertex -65.5179 -32.9708 37.3
      vertex -64.6679 -32.1208 37.3
    endloop
  endfacet
  facet normal 0 0 1
    outer loop
      vertex -66.5684 -31.89 37.3
      vertex -67.4184 -32.7401 37.3
      vertex -65.5179 -32.9708 37.3
    endloop
  endfacet
  facet normal 0 0 1
    outer loop
      vertex -68.144 -30.8025 37.3
      vertex -67.4184 -32.7401 37.3
      vertex -66.5684 -31.89 37.3
    endloop
  endfacet
  facet normal 0 0 1
    outer loop
      vertex -68.144 -30.8025 37.3
      vertex -68.994 -31.6525 37.3
      vertex -67.4184 -32.7401 37.3
    endloop
  endfacet
  facet normal -0 0 1
    outer loop
      vertex -69.8838 -29.9573 37.3
      vertex -68.144 -30.8025 37.3
      vertex -69.0338 -29.1072 37.3
    endloop
  endfacet
  facet normal 0 0 1
    outer loop
      vertex -68.144 -30.8025 37.3
      vertex -69.8838 -29.9573 37.3
      vertex -68.994 -31.6525 37.3
    endloop
  endfacet
  facet normal 0 0 1
    outer loop
      vertex -69.8838 -29.9573 37.3
      vertex -69.0338 -29.1072 37.3
      vertex -69.8838 29.9573 37.3
    endloop
  endfacet
  facet normal -0 0 1
    outer loop
      vertex -54 -32.1208 37.3
      vertex -44 -32.9708 37.3
      vertex -44 -32.1208 37.3
    endloop
  endfacet
  facet normal 0 0 1
    outer loop
      vertex -44 -32.9708 37.3
      vertex -54 -32.1208 37.3
      vertex -54 -32.9708 37.3
    endloop
  endfacet
  facet normal 0.120556 -0.992707 0
    outer loop
      vertex -66.5684 31.89 35.4
      vertex -64.6679 32.1208 37.3
      vertex -66.5684 31.89 37.3
    endloop
  endfacet
  facet normal 0.120556 -0.992707 0
    outer loop
      vertex -64.6679 32.1208 37.3
      vertex -66.5684 31.89 35.4
      vertex -64.6679 32.1208 35.4
    endloop
  endfacet
  facet normal 0.568044 -0.822998 0
    outer loop
      vertex -68.144 30.8025 35.4
      vertex -66.5684 31.89 37.3
      vertex -68.144 30.8025 37.3
    endloop
  endfacet
  facet normal 0.568044 -0.822998 0
    outer loop
      vertex -66.5684 31.89 37.3
      vertex -68.144 30.8025 35.4
      vertex -66.5684 31.89 35.4
    endloop
  endfacet
  facet normal 0.885437 -0.46476 0
    outer loop
      vertex -69.0338 29.1073 37.3
      vertex -68.144 30.8025 35.4
      vertex -68.144 30.8025 37.3
    endloop
  endfacet
  facet normal 0.885437 -0.46476 0
    outer loop
      vertex -68.144 30.8025 35.4
      vertex -69.0338 29.1073 37.3
      vertex -69.0338 29.1073 35.4
    endloop
  endfacet
  facet normal 1 -0 0
    outer loop
      vertex -69.0338 -29.1072 37.3
      vertex -69.0338 29.1073 35.4
      vertex -69.0338 29.1073 37.3
    endloop
  endfacet
  facet normal 1 0 0
    outer loop
      vertex -69.0338 29.1073 35.4
      vertex -69.0338 -29.1072 37.3
      vertex -69.0338 -29.1072 35.4
    endloop
  endfacet
  facet normal 0.885448 0.464739 0
    outer loop
      vertex -68.144 -30.8025 37.3
      vertex -69.0338 -29.1072 35.4
      vertex -69.0338 -29.1072 37.3
    endloop
  endfacet
  facet normal 0.885448 0.464739 0
    outer loop
      vertex -69.0338 -29.1072 35.4
      vertex -68.144 -30.8025 37.3
      vertex -68.144 -30.8025 35.4
    endloop
  endfacet
  facet normal 0.568044 0.822998 -0
    outer loop
      vertex -66.5684 -31.89 35.4
      vertex -68.144 -30.8025 37.3
      vertex -66.5684 -31.89 37.3
    endloop
  endfacet
  facet normal 0.568044 0.822998 0
    outer loop
      vertex -68.144 -30.8025 37.3
      vertex -66.5684 -31.89 35.4
      vertex -68.144 -30.8025 35.4
    endloop
  endfacet
  facet normal 0.120556 0.992707 -0
    outer loop
      vertex -64.6679 -32.1208 35.4
      vertex -66.5684 -31.89 37.3
      vertex -64.6679 -32.1208 37.3
    endloop
  endfacet
  facet normal 0.120556 0.992707 0
    outer loop
      vertex -66.5684 -31.89 37.3
      vertex -64.6679 -32.1208 35.4
      vertex -66.5684 -31.89 35.4
    endloop
  endfacet
  facet normal 0 1 -0
    outer loop
      vertex -56 -32.1208 35.4
      vertex -64.6679 -32.1208 37.3
      vertex -56 -32.1208 37.3
    endloop
  endfacet
  facet normal 0 1 0
    outer loop
      vertex -64.6679 -32.1208 37.3
      vertex -56 -32.1208 35.4
      vertex -64.6679 -32.1208 35.4
    endloop
  endfacet
  facet normal 0 1 0
    outer loop
      vertex -14.3679 -32.1208 37.3
      vertex -36 -32.1208 35.71
      vertex -36 -32.1208 37.3
    endloop
  endfacet
  facet normal 0 1 0
    outer loop
      vertex -54 -32.1208 35.4
      vertex -36 -32.1208 35.71
      vertex -14.3679 -32.1208 35.4
    endloop
  endfacet
  facet normal 0 1 -0
    outer loop
      vertex -14.3679 -32.1208 35.4
      vertex -36 -32.1208 35.71
      vertex -14.3679 -32.1208 37.3
    endloop
  endfacet
  facet normal 0 1 -0
    outer loop
      vertex -44 -32.1208 35.71
      vertex -54 -32.1208 37.3
      vertex -44 -32.1208 37.3
    endloop
  endfacet
  facet normal 0 1 0
    outer loop
      vertex -44 -32.1208 35.71
      vertex -54 -32.1208 35.4
      vertex -54 -32.1208 37.3
    endloop
  endfacet
  facet normal 0 1 0
    outer loop
      vertex -36 -32.1208 35.71
      vertex -54 -32.1208 35.4
      vertex -44 -32.1208 35.71
    endloop
  endfacet
  facet normal -0.354607 0.935015 0
    outer loop
      vertex -12.5778 -31.4419 35.4
      vertex -14.3679 -32.1208 37.3
      vertex -12.5778 -31.4419 37.3
    endloop
  endfacet
  facet normal -0.354607 0.935015 0
    outer loop
      vertex -14.3679 -32.1208 37.3
      vertex -12.5778 -31.4419 35.4
      vertex -14.3679 -32.1208 35.4
    endloop
  endfacet
  facet normal -0.748492 0.663144 0
    outer loop
      vertex -12.5778 -31.4419 35.4
      vertex -11.3082 -30.0089 37.3
      vertex -11.3082 -30.0089 35.4
    endloop
  endfacet
  facet normal -0.748492 0.663144 0
    outer loop
      vertex -11.3082 -30.0089 37.3
      vertex -12.5778 -31.4419 35.4
      vertex -12.5778 -31.4419 37.3
    endloop
  endfacet
  facet normal -0.970939 0.239327 0
    outer loop
      vertex -11.3082 -30.0089 35.4
      vertex -10.85 -28.15 37.3
      vertex -10.85 -28.15 35.4
    endloop
  endfacet
  facet normal -0.970939 0.239327 0
    outer loop
      vertex -10.85 -28.15 37.3
      vertex -11.3082 -30.0089 35.4
      vertex -11.3082 -30.0089 37.3
    endloop
  endfacet
  facet normal -1 0 0
    outer loop
      vertex -10.85 -28.15 35.4
      vertex -10.85 28.15 37.3
      vertex -10.85 28.15 35.4
    endloop
  endfacet
  facet normal -1 -0 0
    outer loop
      vertex -10.85 28.15 37.3
      vertex -10.85 -28.15 35.4
      vertex -10.85 -28.15 37.3
    endloop
  endfacet
  facet normal -0.970939 -0.239327 0
    outer loop
      vertex -10.85 28.15 35.4
      vertex -11.3082 30.0089 37.3
      vertex -11.3082 30.0089 35.4
    endloop
  endfacet
  facet normal -0.970939 -0.239327 0
    outer loop
      vertex -11.3082 30.0089 37.3
      vertex -10.85 28.15 35.4
      vertex -10.85 28.15 37.3
    endloop
  endfacet
  facet normal -0.748492 -0.663144 0
    outer loop
      vertex -11.3082 30.0089 35.4
      vertex -12.5778 31.4419 37.3
      vertex -12.5778 31.4419 35.4
    endloop
  endfacet
  facet normal -0.748492 -0.663144 0
    outer loop
      vertex -12.5778 31.4419 37.3
      vertex -11.3082 30.0089 35.4
      vertex -11.3082 30.0089 37.3
    endloop
  endfacet
  facet normal -0.354607 -0.935015 0
    outer loop
      vertex -14.3679 32.1208 35.4
      vertex -12.5778 31.4419 37.3
      vertex -14.3679 32.1208 37.3
    endloop
  endfacet
  facet normal -0.354607 -0.935015 -0
    outer loop
      vertex -12.5778 31.4419 37.3
      vertex -14.3679 32.1208 35.4
      vertex -12.5778 31.4419 35.4
    endloop
  endfacet
  facet normal 0 -1 0
    outer loop
      vertex -64.6679 32.1208 37.3
      vertex -44 32.1208 35.71
      vertex -44 32.1208 37.3
    endloop
  endfacet
  facet normal 0 -1 -0
    outer loop
      vertex -44 32.1208 35.71
      vertex -64.6679 32.1208 35.4
      vertex -36 32.1208 35.71
    endloop
  endfacet
  facet normal 0 -1 0
    outer loop
      vertex -64.6679 32.1208 35.4
      vertex -44 32.1208 35.71
      vertex -64.6679 32.1208 37.3
    endloop
  endfacet
  facet normal 0 -1 0
    outer loop
      vertex -36 32.1208 35.71
      vertex -14.3679 32.1208 37.3
      vertex -36 32.1208 37.3
    endloop
  endfacet
  facet normal 0 -1 0
    outer loop
      vertex -36 32.1208 35.71
      vertex -14.3679 32.1208 35.4
      vertex -14.3679 32.1208 37.3
    endloop
  endfacet
  facet normal 0 -1 0
    outer loop
      vertex -14.3679 32.1208 35.4
      vertex -36 32.1208 35.71
      vertex -64.6679 32.1208 35.4
    endloop
  endfacet
  facet normal -1 0 0
    outer loop
      vertex -36 -32.9708 35.71
      vertex -36 -32.1208 37.3
      vertex -36 -32.1208 35.71
    endloop
  endfacet
  facet normal -1 -0 0
    outer loop
      vertex -36 -32.1208 37.3
      vertex -36 -32.9708 35.71
      vertex -36 -32.9708 37.3
    endloop
  endfacet
  facet normal -0 0 1
    outer loop
      vertex -44 -32.1208 35.71
      vertex -36 -32.9708 35.71
      vertex -36 -32.1208 35.71
    endloop
  endfacet
  facet normal 0 0 1
    outer loop
      vertex -36 -32.9708 35.71
      vertex -44 -32.1208 35.71
      vertex -44 -32.9708 35.71
    endloop
  endfacet
  facet normal 1 -0 0
    outer loop
      vertex -44 -32.9708 37.3
      vertex -44 -32.1208 35.71
      vertex -44 -32.1208 37.3
    endloop
  endfacet
  facet normal 1 0 0
    outer loop
      vertex -44 -32.1208 35.71
      vertex -44 -32.9708 37.3
      vertex -44 -32.9708 35.71
    endloop
  endfacet
  facet normal -1 0 0
    outer loop
      vertex -36 32.1208 35.71
      vertex -36 32.9708 37.3
      vertex -36 32.9708 35.71
    endloop
  endfacet
  facet normal -1 -0 0
    outer loop
      vertex -36 32.9708 37.3
      vertex -36 32.1208 35.71
      vertex -36 32.1208 37.3
    endloop
  endfacet
  facet normal -0 0 1
    outer loop
      vertex -44 32.9708 35.71
      vertex -36 32.1208 35.71
      vertex -36 32.9708 35.71
    endloop
  endfacet
  facet normal 0 0 1
    outer loop
      vertex -36 32.1208 35.71
      vertex -44 32.9708 35.71
      vertex -44 32.1208 35.71
    endloop
  endfacet
  facet normal 1 -0 0
    outer loop
      vertex -44 32.1208 37.3
      vertex -44 32.9708 35.71
      vertex -44 32.9708 37.3
    endloop
  endfacet
  facet normal 1 0 0
    outer loop
      vertex -44 32.9708 35.71
      vertex -44 32.1208 37.3
      vertex -44 32.1208 35.71
    endloop
  endfacet
  facet normal -1 0 0
    outer loop
      vertex -50 -32.9708 11.5
      vertex -50 -31.7208 18.5
      vertex -50 -31.7208 11.5
    endloop
  endfacet
  facet normal -1 -0 0
    outer loop
      vertex -50 -31.7208 18.5
      vertex -50 -32.9708 11.5
      vertex -50 -32.9708 18.5
    endloop
  endfacet
  facet normal -0 0 1
    outer loop
      vertex -55 -31.7208 11.5
      vertex -50 -32.9708 11.5
      vertex -50 -31.7208 11.5
    endloop
  endfacet
  facet normal 0 0 1
    outer loop
      vertex -50 -32.9708 11.5
      vertex -55 -31.7208 11.5
      vertex -55 -32.9708 11.5
    endloop
  endfacet
  facet normal 0 0 -1
    outer loop
      vertex -54 -32.9708 18.5
      vertex -50 -31.7208 18.5
      vertex -50 -32.9708 18.5
    endloop
  endfacet
  facet normal -0 0 -1
    outer loop
      vertex -50 -31.7208 18.5
      vertex -54 -32.9708 18.5
      vertex -54 -31.7208 18.5
    endloop
  endfacet
  facet normal 1 -0 0
    outer loop
      vertex -55 -32.9708 12.49
      vertex -55 -31.7208 11.5
      vertex -55 -31.7208 12.49
    endloop
  endfacet
  facet normal 1 0 0
    outer loop
      vertex -55 -31.7208 11.5
      vertex -55 -32.9708 12.49
      vertex -55 -32.9708 11.5
    endloop
  endfacet
  facet normal -1 0 0
    outer loop
      vertex -54 -31.7208 18.5
      vertex -54 -32.1208 35.4
      vertex -54 -31.7208 35.4
    endloop
  endfacet
  facet normal -1 0 0
    outer loop
      vertex -54 -32.9708 18.5
      vertex -54 -32.1208 35.4
      vertex -54 -31.7208 18.5
    endloop
  endfacet
  facet normal -1 0 0
    outer loop
      vertex -54 -32.9708 37.3
      vertex -54 -32.1208 35.4
      vertex -54 -32.9708 18.5
    endloop
  endfacet
  facet normal -1 0 0
    outer loop
      vertex -54 -32.1208 35.4
      vertex -54 -32.9708 37.3
      vertex -54 -32.1208 37.3
    endloop
  endfacet
  facet normal -0 0 1
    outer loop
      vertex -56 -31.7208 12.49
      vertex -55 -32.9708 12.49
      vertex -55 -31.7208 12.49
    endloop
  endfacet
  facet normal 0 0 1
    outer loop
      vertex -55 -32.9708 12.49
      vertex -56 -31.7208 12.49
      vertex -56 -32.9708 12.49
    endloop
  endfacet
  facet normal 1 -0 0
    outer loop
      vertex -56 -32.1208 35.4
      vertex -56 -31.7208 12.49
      vertex -56 -31.7208 35.4
    endloop
  endfacet
  facet normal 1 0 0
    outer loop
      vertex -56 -32.9708 12.49
      vertex -56 -32.1208 35.4
      vertex -56 -32.9708 37.3
    endloop
  endfacet
  facet normal 1 0 0
    outer loop
      vertex -56 -32.1208 35.4
      vertex -56 -32.9708 12.49
      vertex -56 -31.7208 12.49
    endloop
  endfacet
  facet normal 1 0 0
    outer loop
      vertex -56 -32.1208 37.3
      vertex -56 -32.9708 37.3
      vertex -56 -32.1208 35.4
    endloop
  endfacet
  facet normal -0 0 1
    outer loop
      vertex -11.25 25.5 22
      vertex -10 13.5 22
      vertex -10 25.5 22
    endloop
  endfacet
  facet normal 0 0 1
    outer loop
      vertex -10 13.5 22
      vertex -11.25 25.5 22
      vertex -11.25 13.5 22
    endloop
  endfacet
  facet normal 0 0 -1
    outer loop
      vertex -11.25 13.5 30
      vertex -10 25.5 30
      vertex -10 13.5 30
    endloop
  endfacet
  facet normal -0 0 -1
    outer loop
      vertex -10 25.5 30
      vertex -11.25 13.5 30
      vertex -11.25 25.5 30
    endloop
  endfacet
  facet normal 0 1 -0
    outer loop
      vertex -10 13.5 22
      vertex -11.25 13.5 30
      vertex -10 13.5 30
    endloop
  endfacet
  facet normal 0 1 0
    outer loop
      vertex -11.25 13.5 30
      vertex -10 13.5 22
      vertex -11.25 13.5 22
    endloop
  endfacet
  facet normal 0 -1 0
    outer loop
      vertex -11.25 25.5 22
      vertex -10 25.5 30
      vertex -11.25 25.5 30
    endloop
  endfacet
  facet normal 0 -1 -0
    outer loop
      vertex -10 25.5 30
      vertex -11.25 25.5 22
      vertex -10 25.5 22
    endloop
  endfacet
endsolid OpenSCAD_Model
